<svg xmlns="http://www.w3.org/2000/svg" viewBox="0 0 64 78">
  <path
    fill="#000000"
    d="M42.7 12.6c3.2-3.8 5.2-9 4.6-12.6-4.7.2-10 3.1-13.1 6.9-2.9 3.4-5.5 8.7-4.7 12.1 5 .4 10.1-2.6 13.2-6.4Zm11.4 28.7c-.2-10 8.1-14.8 8.5-15.1-4.7-6.8-11.9-7.7-14.4-7.8-6.1-.7-11.8 3.6-14.9 3.6-3.2 0-8-3.5-13.2-3.4-6.8.1-13 4-16.5 10-7.2 12.4-1.8 30.7 5.1 40.7 3.4 4.9 7.3 10.4 12.6 10.2 5.1-.2 7.1-3.3 13.3-3.3s8 3.3 13.3 3.2c5.5-.1 9-5 12.3-9.9 3.9-5.6 5.5-11.1 5.6-11.4-.1 0-10.5-4-10.7-16.8Z"
  />
</svg>
